<?xml version="1.0" standalone="no"?>
<!DOCTYPE svg PUBLIC "-//W3C//DTD SVG 1.1//EN" "http://www.w3.org/Graphics/SVG/1.1/DTD/svg11.dtd" >
<svg>
<metadata>
Created by FontForge 20120731 at Thu Feb 14 20:11:53 2013
 By Stefan Warting
Copyright (c) 1988 Adobe Systems Incorporated.  All Rights Reserved.Frutiger is a registered trademark of Linotype AG and/or its subsidiaries.
</metadata>
<defs>
<font id="Frutiger-LightItalic" horiz-adv-x="556" >
  <font-face 
    font-family="Frutiger-LightItalic"
    font-weight="5"
    font-style="italic"
    font-stretch="normal"
    units-per-em="1000"
    panose-1="0 0 0 0 0 0 0 0 0 0"
    ascent="800"
    descent="-200"
    x-height="510"
    cap-height="698"
    bbox="-143 -233 1031 917"
    underline-thickness="50"
    underline-position="-75"
    unicode-range="U+0020-F002"
  />
<missing-glyph horiz-adv-x="781" 
d="M48 0v781h685v-781h-685zM685 48v685h-589v-685h589z" />
    <glyph glyph-name=".notdef" horiz-adv-x="781" 
d="M48 0v781h685v-781h-685zM685 48v685h-589v-685h589z" />
    <glyph glyph-name=".null" horiz-adv-x="0" 
 />
    <glyph glyph-name="nonmarkingreturn" horiz-adv-x="278" 
 />
    <glyph glyph-name="space" unicode=" " horiz-adv-x="278" 
 />
    <glyph glyph-name="exclam" unicode="!" horiz-adv-x="389" 
d="M250 698h84l-125 -529h-59zM119 84h82l-17 -84h-82z" />
    <glyph glyph-name="quotedbl" unicode="&#x22;" horiz-adv-x="444" 
d="M179 698h63v-218h-63v218zM314 698h63v-218h-63v218z" />
    <glyph glyph-name="numbersign" unicode="#" 
d="M158 219h-112l8 54h111l22 152h-115l8 54h114l31 219h61l-31 -219h130l31 219h61l-31 -219h104l-8 -54h-103l-21 -152h104l-8 -54h-104l-31 -219h-61l31 219h-130l-31 -219h-61zM378 425h-130l-21 -152h130z" />
    <glyph glyph-name="dollar" unicode="$" 
d="M339 646q-53 -10 -88 -41.5t-35 -84.5q0 -30 17.5 -52t55.5 -47zM254 52q64 8 107 44.5t43 100.5q0 40 -22.5 68.5t-66.5 58.5zM418 786l-17 -76q39 0 73 -7.5t71 -23.5l-21 -63q-32 16 -65.5 25t-70.5 9l-57 -256q68 -43 105 -83t37 -105q0 -96 -69.5 -156t-163.5 -60
l-18 -80h-48l18 78q-52 0 -86.5 10.5t-65.5 27.5l21 66q29 -20 68 -32t76 -12l68 304q-62 40 -94 75t-32 88q0 90 59.5 141.5t146.5 51.5l17 78h48z" />
    <glyph glyph-name="percent" unicode="%" horiz-adv-x="944" 
d="M824 220q0 37 -22.5 63.5t-61.5 26.5q-64 0 -95 -54.5t-31 -122.5q0 -39 22.5 -62.5t63.5 -23.5q60 0 92 55t32 118zM551 145q0 82 54 150.5t135 68.5q65 0 106 -39t41 -105q0 -92 -52 -159.5t-141 -67.5q-66 0 -104.5 42.5t-38.5 109.5zM362 561q0 37 -22.5 63.5
t-61.5 26.5q-64 0 -95 -54.5t-31 -122.5q0 -39 22.5 -62.5t63.5 -23.5q60 0 92 55t32 118zM89 486q0 82 54 150.5t135 68.5q65 0 106 -39t41 -105q0 -92 -52 -159.5t-141 -67.5q-66 0 -104.5 42.5t-38.5 109.5zM684 720h56l-445 -742h-56z" />
    <glyph glyph-name="ampersand" unicode="&#x26;" horiz-adv-x="667" 
d="M466 79q-51 -50 -105 -70.5t-117 -20.5q-97 0 -157 49t-60 133q0 89 63 145.5t162 82.5q-36 50 -51 81t-15 73q0 78 56 118t132 40q74 0 122 -37.5t48 -109.5t-58.5 -118t-144.5 -74l140 -200q29 31 53 77.5t48 133.5h60q-16 -74 -47.5 -138.5t-82.5 -121.5l80 -122h-75z
M282 356q-84 -25 -135 -68t-51 -118q0 -59 44.5 -93.5t103.5 -34.5q53 0 102 22t92 63zM369 656q-48 0 -84 -27.5t-36 -75.5q0 -52 64 -140q73 26 120.5 59.5t47.5 90.5q0 46 -30.5 69.5t-81.5 23.5z" />
    <glyph glyph-name="quotesingle" unicode="'" horiz-adv-x="278" 
d="M166 698h63v-218h-63v218z" />
    <glyph glyph-name="parenleft" unicode="(" horiz-adv-x="278" 
d="M389 756q-81 -95 -136 -178.5t-88.5 -178t-33.5 -199.5q0 -85 17.5 -169.5t50.5 -170.5h-45q-40 93 -63 183.5t-23 176.5q0 101 35.5 190.5t84.5 159.5t142 186h59z" />
    <glyph glyph-name="parenright" unicode=")" horiz-adv-x="278" 
d="M-71 -140q81 95 136 178.5t88.5 178t33.5 199.5q0 85 -17.5 169.5t-50.5 170.5h45q40 -93 63 -183.5t23 -176.5q0 -101 -35.5 -190.5t-84.5 -159.5t-142 -186h-59z" />
    <glyph glyph-name="asterisk" unicode="*" 
d="M278 501l-148 42l19 58l144 -56l-6 153h57l-6 -153l148 56l17 -58l-150 -42l89 -122l-46 -35l-81 129l-90 -129l-46 35z" />
    <glyph glyph-name="plus" unicode="+" horiz-adv-x="600" 
d="M61 288h219v219h69v-219h219v-69h-219v-219h-69v219h-219v69z" />
    <glyph glyph-name="comma" unicode="," horiz-adv-x="278" 
d="M65 84h82l-123 -218h-61z" />
    <glyph glyph-name="hyphen" unicode="-" horiz-adv-x="333" 
d="M50 304h255l-11 -69h-255z" />
    <glyph glyph-name="period" unicode="." horiz-adv-x="278" 
d="M65 84h82l-17 -84h-82z" />
    <glyph glyph-name="slash" unicode="/" horiz-adv-x="278" 
d="M265 710h69l-273 -722h-67z" />
    <glyph glyph-name="zero" unicode="0" 
d="M359 705q97 0 143 -65t46 -167q0 -86 -33 -198.5t-102 -197t-170 -84.5q-97 0 -143 65t-46 167q0 86 33 198.5t102 197t170 84.5zM238 53q76 0 131 77.5t82.5 178t27.5 163.5q0 71 -26 122t-95 51q-74 0 -127 -77t-80.5 -178.5t-27.5 -163.5q0 -71 25 -122t90 -51z" />
    <glyph glyph-name="one" unicode="1" 
d="M341 620l-133 -95l-32 47l196 126h52l-147 -698h-66z" />
    <glyph glyph-name="two" unicode="2" 
d="M17 54l186 162q145 126 195 193.5t50 125.5q0 50 -34 80t-88 30q-50 0 -95.5 -16t-80.5 -44l6 73q35 20 81 33.5t89 13.5q89 0 140 -44t51 -120q0 -87 -51 -149t-113 -123l-240 -209h328l-14 -60h-425z" />
    <glyph glyph-name="three" unicode="3" 
d="M174 398h67q86 0 148 34t62 96q0 60 -42 88.5t-100 28.5q-56 0 -89 -8t-79 -32l5 67q36 17 78.5 25t84.5 8q90 0 150.5 -42t60.5 -129q0 -68 -53.5 -114.5t-127.5 -55.5q57 -13 86 -53.5t29 -94.5q0 -106 -86 -164.5t-197 -58.5q-48 0 -86.5 6.5t-85.5 24.5l16 60
q38 -15 70 -23t86 -8q93 0 153.5 43.5t60.5 125.5q0 54 -48.5 85t-113.5 31h-64z" />
    <glyph glyph-name="four" unicode="4" 
d="M338 161h-337l15 66l416 471h89l-103 -477h103l-12 -60h-104l-35 -161h-66zM352 221l90 408l-355 -408h265z" />
    <glyph glyph-name="five" unicode="5" 
d="M197 698h367l-12 -60h-305l-51 -221q50 12 89 12q91 0 147 -48.5t56 -133.5q0 -115 -83 -184.5t-194 -69.5q-52 0 -92 7t-80 22l13 66q31 -15 67.5 -25t75.5 -10q97 0 160.5 52.5t63.5 137.5q0 60 -45.5 93t-115.5 33q-37 0 -70.5 -6t-71.5 -18z" />
    <glyph glyph-name="six" unicode="6" 
d="M538 610q-28 16 -63.5 25.5t-76.5 9.5q-104 0 -175.5 -86t-85.5 -196q44 42 83 60t99 18q86 0 140.5 -54.5t54.5 -139.5q0 -105 -68.5 -179.5t-170.5 -74.5q-117 0 -166 72t-49 188q0 179 89.5 315.5t252.5 136.5q42 0 81 -9t73 -25zM445 239q0 61 -39.5 101.5
t-116.5 40.5q-65 0 -112.5 -50.5t-47.5 -120.5t41.5 -113.5t108.5 -43.5q70 0 118 57.5t48 128.5z" />
    <glyph glyph-name="seven" unicode="7" 
d="M563 644l-413 -644h-79l414 638h-347l12 60h423z" />
    <glyph glyph-name="eight" unicode="8" 
d="M433 191q0 73 -75 119q-50 26 -69 36q-49 -7 -116 -50t-67 -110q0 -64 46 -101.5t110 -37.5q68 0 119.5 40t51.5 104zM204 521q0 -37 27.5 -70.5t68.5 -60.5q78 26 130.5 60t52.5 90q0 55 -41 83t-97 28q-58 0 -99.5 -35.5t-41.5 -94.5zM552 540q0 -67 -59.5 -112.5
t-135.5 -61.5q68 -27 106.5 -68t38.5 -106q0 -96 -68 -147.5t-172 -51.5q-100 0 -162.5 48t-62.5 141q0 72 57 121.5t141 68.5q-44 29 -72 67t-28 82q0 85 65 134.5t151 49.5q87 0 144 -40t57 -125z" />
    <glyph glyph-name="nine" unicode="9" 
d="M60 88q28 -16 63.5 -25.5t76.5 -9.5q104 0 175.5 86t85.5 196q-44 -42 -83 -60t-99 -18q-86 0 -140.5 54.5t-54.5 139.5q0 105 68.5 179.5t170.5 74.5q117 0 166 -72t49 -188q0 -179 -89.5 -315.5t-252.5 -136.5q-42 0 -81 9t-73 25zM153 459q0 -61 39.5 -101.5
t116.5 -40.5q65 0 112.5 50.5t47.5 120.5t-41.5 113.5t-108.5 43.5q-70 0 -118 -57.5t-48 -128.5z" />
    <glyph glyph-name="colon" unicode=":" horiz-adv-x="278" 
d="M154 510h82l-17 -84h-82zM65 84h82l-17 -84h-82z" />
    <glyph glyph-name="semicolon" unicode=";" horiz-adv-x="278" 
d="M65 84h82l-123 -218h-61zM154 510h82l-17 -84h-82z" />
    <glyph glyph-name="less" unicode="&#x3c;" horiz-adv-x="600" 
d="M568 448l-430 -195l430 -195v-66l-507 230v62l507 230v-66z" />
    <glyph glyph-name="equal" unicode="=" horiz-adv-x="600" 
d="M61 388h507v-69h-507v69zM61 187h507v-69h-507v69z" />
    <glyph glyph-name="greater" unicode="&#x3e;" horiz-adv-x="600" 
d="M62 58l431 195l-431 195v66l507 -230v-62l-507 -230v66z" />
    <glyph glyph-name="question" unicode="?" horiz-adv-x="500" 
d="M155 688q39 11 66.5 16.5t56.5 5.5q81 0 135.5 -40.5t54.5 -120.5q0 -41 -22.5 -81.5t-92 -98.5t-102 -91t-41.5 -77l-7 -32h-58l8 39q8 42 38.5 84.5t95 94.5t88.5 82.5t24 79.5q0 50 -41.5 75.5t-92.5 25.5q-28 0 -62 -7t-59 -19zM121 84h82l-17 -84h-82z" />
    <glyph glyph-name="at" unicode="@" horiz-adv-x="800" 
d="M338 194q67 0 115.5 70.5t48.5 140.5q0 48 -23.5 69t-56.5 21q-53 0 -104.5 -60t-51.5 -145q0 -45 19.5 -70.5t52.5 -25.5zM531 266q-10 -28 -10 -49q0 -10 5.5 -16.5t16.5 -6.5q58 0 102.5 63.5t44.5 150.5q0 111 -85 176.5t-204 65.5q-126 0 -210.5 -85.5t-84.5 -214.5
q0 -131 83.5 -216.5t211.5 -85.5q83 0 152 29.5t112 81.5h61q-47 -81 -132 -126t-193 -45q-169 0 -265 107.5t-96 253.5q0 147 95 254t266 107q142 0 248.5 -81t106.5 -221q0 -118 -76 -196t-150 -78q-67 0 -79 61q-27 -29 -53.5 -45t-71.5 -16q-58 0 -96.5 43.5
t-38.5 106.5q0 104 65.5 187.5t165.5 83.5q37 0 65 -18.5t45 -58.5l21 60h63z" />
    <glyph glyph-name="A" unicode="A" horiz-adv-x="667" 
d="M420 629l-236 -382h309zM391 698h82l136 -698h-70l-35 187h-357l-115 -187h-74z" />
    <glyph glyph-name="B" unicode="B" 
d="M182 698h126q104 0 166 -31t62 -123q0 -73 -49.5 -122.5t-120.5 -56.5q121 -20 121 -145q0 -99 -78.5 -159.5t-200.5 -60.5h-176zM113 60h88q96 0 156.5 40.5t60.5 119.5q0 57 -34.5 85t-91.5 28h-119zM185 393h89q78 0 135.5 36.5t57.5 111.5q0 61 -38.5 79t-119.5 18
h-71z" />
    <glyph glyph-name="C" unicode="C" horiz-adv-x="611" 
d="M653 616q-36 19 -77 26.5t-91 7.5q-151 0 -246.5 -101.5t-95.5 -255.5q0 -102 72.5 -173.5t181.5 -71.5q46 0 65.5 2.5t83.5 20.5l-8 -61q-46 -13 -67 -17.5t-69 -4.5q-138 0 -233 84t-95 222q0 182 117 299t298 117q61 0 101.5 -7.5t86.5 -28.5z" />
    <glyph glyph-name="D" unicode="D" horiz-adv-x="667" 
d="M119 60h123q158 0 247.5 94.5t89.5 263.5q0 113 -66 166.5t-183 53.5h-87zM185 698h124q155 0 247 -65t92 -215q0 -190 -106 -304t-294 -114h-211z" />
    <glyph glyph-name="E" unicode="E" horiz-adv-x="500" 
d="M181 698h344l-11 -60h-277l-51 -249h261l-11 -60h-262l-56 -269h287l-10 -60h-358z" />
    <glyph glyph-name="F" unicode="F" horiz-adv-x="444" 
d="M176 698h334l-13 -60h-267l-51 -249h256l-12 -60h-255l-71 -329h-69z" />
    <glyph glyph-name="G" unicode="G" horiz-adv-x="722" 
d="M682 610q-41 21 -88.5 30.5t-98.5 9.5q-152 0 -249.5 -95.5t-97.5 -249.5q0 -109 69.5 -183t176.5 -74q49 0 78.5 8t57.5 21l49 241h-167l14 60h237l-73 -355l-62 -20q-58 -15 -129 -15q-145 0 -232.5 88.5t-87.5 236.5q0 173 118 285t290 112q60 0 109.5 -7.5
t104.5 -27.5z" />
    <glyph glyph-name="H" unicode="H" horiz-adv-x="667" 
d="M185 698h68l-65 -309h357l66 309h68l-150 -698h-68l71 329h-357l-70 -329h-68z" />
    <glyph glyph-name="I" unicode="I" horiz-adv-x="222" 
d="M176 698h69l-148 -698h-69z" />
    <glyph glyph-name="J" unicode="J" horiz-adv-x="333" 
d="M-20 63q17 -7 33 -11t33 -4q67 0 93.5 52t45.5 142l96 456h69l-102 -468q-27 -124 -63.5 -183t-134.5 -59q-37 0 -54 2.5t-31 9.5z" />
    <glyph glyph-name="K" unicode="K" horiz-adv-x="611" 
d="M196 698h68l-65 -304l370 304h100l-411 -331l296 -367h-86l-279 349l-72 -349h-70z" />
    <glyph glyph-name="L" unicode="L" horiz-adv-x="444" 
d="M177 698h71l-137 -638h285l-11 -60h-357z" />
    <glyph glyph-name="M" unicode="M" horiz-adv-x="889" 
d="M185 698h96l128 -614l388 614h107l-148 -698h-68l135 623l-400 -623h-57l-131 623l-134 -623h-64z" />
    <glyph glyph-name="N" unicode="N" horiz-adv-x="667" 
d="M179 698h82l233 -614l132 614h63l-148 -698h-82l-233 614l-134 -614h-64z" />
    <glyph glyph-name="O" unicode="O" horiz-adv-x="722" 
d="M438 710q127 0 195.5 -77t68.5 -208q0 -175 -102 -306t-269 -131q-127 0 -195.5 77t-68.5 208q0 175 102 306t269 131zM333 48q132 0 216 115.5t84 255.5q0 103 -50 167t-147 64q-132 0 -216 -115.5t-84 -255.5q0 -103 50 -167t147 -64z" />
    <glyph glyph-name="P" unicode="P" horiz-adv-x="500" 
d="M185 362h78q90 0 149.5 38.5t59.5 122.5q0 65 -42 90t-113 25h-73zM187 698h119q112 0 173.5 -36.5t61.5 -138.5q0 -106 -79.5 -163.5t-191.5 -57.5h-98l-66 -302h-69z" />
    <glyph glyph-name="Q" unicode="Q" horiz-adv-x="722" 
d="M479 -132l-103 124q-19 -4 -45 -4q-127 0 -195.5 77t-68.5 208q0 175 102 306t269 131q127 0 195.5 -77t68.5 -208q0 -143 -70 -260.5t-191 -158.5l124 -138h-86zM333 48q132 0 216 115.5t84 255.5q0 103 -50 167t-147 64q-132 0 -216 -115.5t-84 -255.5q0 -103 50 -167
t147 -64z" />
    <glyph glyph-name="R" unicode="R" 
d="M189 698h158q91 0 141.5 -35.5t50.5 -120.5q0 -84 -56.5 -135.5t-140.5 -51.5q38 -8 51.5 -27.5t23.5 -59.5l66 -268h-68l-61 259q-12 40 -33 55t-63 15h-81l-70 -329h-70zM190 389h73q83 0 145 34t62 110q0 56 -34 80.5t-92 24.5h-101z" />
    <glyph glyph-name="S" unicode="S" horiz-adv-x="500" 
d="M498 616q-66 34 -141 34q-67 0 -117 -32t-50 -98q0 -49 64 -93t126 -86q67 -58 67 -135q0 -100 -77 -159t-180 -59q-63 0 -104 10.5t-72 27.5l21 66q29 -20 70.5 -32t78.5 -12q79 0 136.5 37t57.5 112q0 60 -66 111q-62 42 -124 85q-67 55 -67 122q0 96 68 145.5
t168 49.5q90 0 162 -31z" />
    <glyph glyph-name="T" unicode="T" horiz-adv-x="500" 
d="M101 698h493l-12 -60h-212l-134 -638h-72l136 638h-212z" />
    <glyph glyph-name="U" unicode="U" horiz-adv-x="667" 
d="M594 266q-20 -127 -92 -202.5t-190 -75.5q-103 0 -166.5 57.5t-63.5 162.5q0 43 11 102.5t29 136.5l55 251h66l-71 -340q-8 -39 -14.5 -81.5t-6.5 -65.5q0 -76 42.5 -119.5t117.5 -43.5q86 0 139 53.5t72 141.5l101 455h64z" />
    <glyph glyph-name="V" unicode="V" horiz-adv-x="611" 
d="M293 0h-75l-114 698h67l96 -629l363 629h71z" />
    <glyph glyph-name="W" unicode="W" horiz-adv-x="944" 
d="M104 698h67l49 -620l308 620h83l40 -620l312 620h68l-353 -698h-83l-38 620l-308 -620h-83z" />
    <glyph glyph-name="X" unicode="X" horiz-adv-x="611" 
d="M293 367l-169 331h75l142 -287l260 287h84l-308 -333l179 -365h-76l-150 316l-286 -316h-87z" />
    <glyph glyph-name="Y" unicode="Y" horiz-adv-x="611" 
d="M283 295l-177 403h73l147 -346l294 346h83l-353 -403l-63 -295h-67z" />
    <glyph glyph-name="Z" unicode="Z" horiz-adv-x="500" 
d="M-19 61l489 577h-355l13 60h437l-13 -61l-488 -577h378l-13 -60h-460z" />
    <glyph glyph-name="bracketleft" unicode="[" horiz-adv-x="278" 
d="M205 756h158l-9 -48h-102l-170 -800h100l-9 -48h-158z" />
    <glyph glyph-name="backslash" unicode="\" horiz-adv-x="278" 
d="M334 -12h-71l-269 722h71z" />
    <glyph glyph-name="bracketright" unicode="]" horiz-adv-x="278" 
d="M116 -140h-158l9 48h102l170 800h-100l9 48h158z" />
    <glyph glyph-name="asciicircum" unicode="^" horiz-adv-x="600" 
d="M278 698h64l218 -433h-70l-181 364l-178 -364h-71z" />
    <glyph glyph-name="underscore" unicode="_" horiz-adv-x="500" 
d="M0 -125v50h500v-50h-500z" />
    <glyph glyph-name="grave" unicode="`" horiz-adv-x="222" 
d="M223 578h-42l-122 144h79z" />
    <glyph glyph-name="a" unicode="a" horiz-adv-x="500" 
d="M409 121q-8 -30 -13.5 -64t-5.5 -57h-63q2 19 4 39t6 36q-33 -46 -75.5 -66.5t-100.5 -20.5q-61 0 -103.5 40.5t-42.5 102.5q0 101 86.5 140.5t206.5 39.5q20 0 31 -0.5t38 -3.5q3 23 3 51q0 52 -28 81t-81 29q-41 0 -75.5 -11.5t-75.5 -32.5l7 64q30 12 73 23t81 11
q82 0 125 -43t43 -123q0 -16 -3 -41t-10 -56zM183 42q82 0 128 61t58 152l-62 2q-90 0 -156.5 -25t-66.5 -100q0 -42 29 -66t70 -24z" />
    <glyph glyph-name="b" unicode="b" 
d="M181 442q32 39 71 59.5t99 20.5q84 0 128 -58.5t44 -147.5q0 -130 -69.5 -229t-190.5 -99q-70 0 -106.5 29.5t-50.5 72.5q-9 -31 -15 -53.5t-9 -36.5h-65q7 26 14 50t13 54l138 646h66zM133 204q0 -74 29.5 -118t100.5 -44q90 0 140.5 86.5t50.5 187.5q0 68 -30.5 110
t-94.5 42q-87 0 -141.5 -84t-54.5 -180z" />
    <glyph glyph-name="c" unicode="c" horiz-adv-x="444" 
d="M449 445q-14 8 -52 15.5t-66 7.5q-105 0 -164 -68t-59 -174q0 -78 47 -131t118 -53q23 0 42 4t66 20l-8 -63q-17 -6 -49 -10.5t-67 -4.5q-103 0 -160.5 70.5t-57.5 162.5q0 139 77 220t222 81q31 0 69.5 -6t59.5 -14z" />
    <glyph glyph-name="d" unicode="d" 
d="M454 100q-10 -47 -13.5 -65t-3.5 -35h-65q5 51 16 81q-32 -45 -73.5 -69t-102.5 -24q-86 0 -129.5 62.5t-43.5 155.5q0 118 70 217t185 99q59 0 100.5 -26.5t55.5 -79.5l72 334h66zM233 42q81 0 138.5 85.5t57.5 178.5q0 72 -33.5 117t-96.5 45q-90 0 -140.5 -86.5
t-50.5 -187.5q0 -68 30.5 -110t94.5 -42z" />
    <glyph glyph-name="e" unicode="e" horiz-adv-x="500" 
d="M105 237l-3 -41q0 -73 42.5 -113.5t112.5 -40.5q34 0 67 6.5t82 27.5l-5 -61q-30 -11 -64.5 -19t-87.5 -8q-94 0 -152 53.5t-58 154.5q0 134 72.5 230t191.5 96q89 0 134.5 -50.5t45.5 -139.5q0 -26 -3 -54.5t-4 -40.5h-371zM417 291l3 39q0 66 -28.5 102t-88.5 36
q-71 0 -122 -51.5t-65 -125.5h301z" />
    <glyph glyph-name="f" unicode="f" horiz-adv-x="333" 
d="M171 456h-110l13 54h109l11 51q19 89 54.5 145t114.5 56q19 0 36 -2t34 -9l-15 -53q-5 2 -18.5 6t-32.5 4q-60 0 -79 -51t-31 -109l-8 -38h127l-13 -54h-126l-98 -456h-66z" />
    <glyph glyph-name="g" unicode="g" 
d="M10 -118q35 -23 74.5 -33.5t81.5 -10.5q102 0 146 47t69 152l8 37q-70 -74 -173 -74q-86 0 -134 60t-48 148q0 129 69 221.5t191 92.5q65 0 109 -28t56 -88q6 25 12 50.5t14 53.5h63l-24 -104l-76 -351q-32 -151 -84.5 -211t-197.5 -60q-52 0 -88.5 6.5t-84.5 27.5z
M239 54q89 0 140.5 77t51.5 175q0 72 -35.5 117t-102.5 45q-86 0 -138 -83t-52 -177q0 -69 34 -111.5t102 -42.5z" />
    <glyph glyph-name="h" unicode="h" 
d="M189 750h66l-76 -323q30 48 68 71.5t97 23.5q71 0 115.5 -39t44.5 -109q0 -26 -3 -47t-12 -58l-57 -269h-66l58 281q5 24 8 44.5t3 44.5q0 45 -25.5 71.5t-72.5 26.5q-76 0 -122 -62.5t-66 -155.5l-55 -250h-66z" />
    <glyph glyph-name="i" unicode="i" horiz-adv-x="222" 
d="M136 510h66l-108 -510h-66zM235 646h-75l18 84h75z" />
    <glyph glyph-name="j" unicode="j" horiz-adv-x="222" 
d="M84 -60q-19 -92 -53 -124t-87 -32q-13 0 -33.5 3.5t-30.5 5.5l17 57q8 -4 16 -5t19 -1q36 0 57.5 28.5t28.5 65.5l117 572h66zM233 646h-75l18 84h75z" />
    <glyph glyph-name="k" unicode="k" horiz-adv-x="500" 
d="M192 750h62l-96 -446l267 206h94l-307 -226l227 -284h-82l-207 262l-56 -262h-66z" />
    <glyph glyph-name="l" unicode="l" horiz-adv-x="222" 
d="M188 750h66l-160 -750h-66z" />
    <glyph glyph-name="m" unicode="m" horiz-adv-x="833" 
d="M115 424q7 27 10 46.5t3 39.5h63q-4 -48 -11 -77q38 48 73.5 68.5t86.5 20.5q56 0 92 -30t36 -84q27 55 70.5 84.5t104.5 29.5q66 0 105 -40t39 -110q0 -16 -3 -36t-12 -60l-58 -276h-66l57 270q6 26 9.5 49t3.5 50q0 45 -20.5 72t-64.5 27q-71 0 -115 -62.5t-61 -146.5
l-53 -259h-66l57 270q6 26 9.5 49t3.5 50q0 45 -20.5 72t-64.5 27q-71 0 -115 -62.5t-61 -146.5l-53 -259h-66z" />
    <glyph glyph-name="n" unicode="n" 
d="M116 429q6 32 9 49t3 32h63q-5 -52 -5.5 -55t-5.5 -22q28 41 72 65t92 24q71 0 115.5 -39t44.5 -109q0 -22 -4.5 -49t-10.5 -56l-57 -269h-66l58 281q5 24 8 44.5t3 44.5q0 45 -25.5 71.5t-72.5 26.5q-77 0 -125 -63.5t-68 -162.5l-50 -242h-66z" />
    <glyph glyph-name="o" unicode="o" 
d="M323 522q96 0 149.5 -59.5t53.5 -159.5q0 -132 -77.5 -223.5t-205.5 -91.5q-93 0 -148.5 62.5t-55.5 159.5q0 132 78.5 222t205.5 90zM251 42q92 0 149 81t57 179q0 77 -35 121.5t-107 44.5q-99 0 -153 -80.5t-54 -187.5q0 -68 39 -113t104 -45z" />
    <glyph glyph-name="p" unicode="p" 
d="M107 391q7 31 11.5 56t8.5 63h63q0 -18 -2.5 -32t-8.5 -44q27 40 72.5 64t96.5 24q84 0 129.5 -58t45.5 -148q0 -129 -69 -228.5t-190 -99.5q-55 0 -95.5 29.5t-56.5 81.5l-64 -309h-66zM264 42q91 0 140.5 85.5t49.5 188.5q0 67 -31 109.5t-93 42.5q-84 0 -139 -86
t-55 -178q0 -67 32.5 -114.5t95.5 -47.5z" />
    <glyph glyph-name="q" unicode="q" 
d="M384 66q-33 -39 -72.5 -58.5t-100.5 -19.5q-81 0 -126.5 59t-45.5 147q0 130 69.5 229t190.5 99q60 0 101.5 -32t52.5 -84q13 52 27 104h66q-10 -32 -17 -59.5t-11 -44.5l-132 -616h-66zM233 42q88 0 142 81.5t54 182.5q0 67 -33.5 114.5t-96.5 47.5q-90 0 -140.5 -86.5
t-50.5 -187.5q0 -68 30.5 -110t94.5 -42z" />
    <glyph glyph-name="r" unicode="r" horiz-adv-x="333" 
d="M114 419q3 17 7.5 41.5t6.5 49.5h63q-5 -52 -5.5 -55t-5.5 -22q28 41 63 65t81 24q15 0 31 -3t24 -4l-15 -67q-9 4 -25.5 6t-28.5 2q-69 0 -107 -59t-56 -146l-52 -251h-67z" />
    <glyph glyph-name="s" unicode="s" horiz-adv-x="389" 
d="M5 79q29 -18 59 -27.5t62 -9.5q56 0 100 24t44 78t-100.5 111.5t-100.5 124.5q0 70 58 106t131 36q69 0 131 -25l-21 -59q-52 30 -113 30q-48 0 -84 -19.5t-36 -67.5q0 -37 102 -98t102 -135q0 -80 -60.5 -120t-144.5 -40q-43 0 -76.5 6t-71.5 22z" />
    <glyph glyph-name="t" unicode="t" horiz-adv-x="333" 
d="M199 624l72 25l-31 -139h133l-13 -54h-131l-54 -252q-8 -39 -11.5 -58.5t-3.5 -41.5q0 -62 58 -62q29 0 54 14l-6 -54q-30 -14 -64 -14q-52 0 -81.5 26.5t-29.5 68.5q0 21 6 59.5t17 87.5l49 226h-102l14 54h100z" />
    <glyph glyph-name="u" unicode="u" 
d="M445 81q-6 -32 -9 -49t-3 -32h-63q5 52 5.5 55t5.5 22q-28 -41 -72 -65t-92 -24q-71 0 -115.5 39t-44.5 109q0 22 4.5 49t10.5 56l57 269h66l-58 -281q-5 -24 -8 -44.5t-3 -44.5q0 -45 25.5 -71.5t72.5 -26.5q77 0 125 63.5t68 162.5l50 242h66z" />
    <glyph glyph-name="v" unicode="v" horiz-adv-x="444" 
d="M209 0h-76l-68 510h64l57 -441l237 441h71z" />
    <glyph glyph-name="w" unicode="w" horiz-adv-x="778" 
d="M65 510h65l38 -441l242 441h75l49 -441l223 441h71l-265 -510h-77l-52 441l-241 -441h-75z" />
    <glyph glyph-name="x" unicode="x" horiz-adv-x="444" 
d="M193 269l-115 241h69l89 -190l162 190h80l-212 -241l121 -269h-72l-93 216l-186 -216h-77z" />
    <glyph glyph-name="y" unicode="y" horiz-adv-x="444" 
d="M139 -120q-26 -48 -56.5 -72t-80.5 -24q-21 0 -33 2.5t-28 11.5l15 54q7 -7 18 -10.5t23 -3.5q30 0 55.5 23t41.5 57l43 81l-72 511h66l52 -439l241 439h68z" />
    <glyph glyph-name="z" unicode="z" horiz-adv-x="444" 
d="M-8 58l380 398h-289l12 54h373l-12 -59l-385 -397h306l-10 -54h-387z" />
    <glyph glyph-name="braceleft" unicode="{" horiz-adv-x="278" 
d="M380 708h-33q-57 0 -76 -93l-34 -165q-10 -48 -41.5 -89.5t-71.5 -51.5q29 -11 44 -39t15 -63q0 -16 -5 -43l-33 -162q-6 -27 -6 -49q0 -45 30 -45h46l-10 -48h-50q-35 0 -57 22t-22 61v18t3 21l35 170q6 27 6 50q0 39 -14 60.5t-48 21.5l10 48q43 0 71 37.5t41 97.5
l34 168q12 56 47.5 88.5t79.5 32.5h49z" />
    <glyph glyph-name="bar" unicode="|" horiz-adv-x="222" 
d="M101 750h69v-762h-69v762z" />
    <glyph glyph-name="braceright" unicode="}" horiz-adv-x="278" 
d="M-51 -92h33q57 0 76 93l34 165q10 48 41.5 89.5t71.5 51.5q-29 11 -44 39t-15 63q0 16 5 43l33 162q6 27 6 49q0 45 -30 45h-46l10 48h50q35 0 57 -22t22 -61q0 -9 -1 -20.5t-2 -18.5l-35 -170q-6 -27 -6 -50q0 -39 14 -60.5t48 -21.5l-10 -48q-43 0 -71 -37.5t-41 -97.5
l-34 -168q-12 -56 -47.5 -88.5t-79.5 -32.5h-49z" />
    <glyph glyph-name="asciitilde" unicode="~" horiz-adv-x="600" 
d="M531 273q-21 -40 -50 -65.5t-75 -25.5q-40 0 -115 36.5t-98 36.5q-26 0 -46 -19t-42 -54l-36 51q21 40 50 65.5t75 25.5q40 0 115 -36.5t98 -36.5q26 0 46 19t42 54z" />
    <glyph glyph-name="Adieresis" unicode="&#xc4;" horiz-adv-x="667" 
d="M420 629l-236 -382h309zM391 698h82l136 -698h-70l-35 187h-357l-115 -187h-74zM337 851h77l-16 -84h-77zM512 851h77l-16 -84h-77z" />
    <glyph glyph-name="Aring" unicode="&#xc5;" horiz-adv-x="667" 
d="M420 629l-236 -382h309zM391 698h82l136 -698h-70l-35 187h-357l-115 -187h-74zM450 917q40 0 69.5 -29.5t29.5 -69.5t-29 -70t-70 -30t-70.5 29.5t-29.5 70.5t30 70t70 29zM450 754q28 0 45.5 18.5t17.5 45.5t-17 45t-46 18t-46.5 -17.5t-17.5 -45.5q0 -27 17.5 -45.5
t46.5 -18.5z" />
    <glyph glyph-name="Ccedilla" unicode="&#xc7;" horiz-adv-x="611" 
d="M653 616q-36 19 -77 26.5t-91 7.5q-151 0 -246.5 -101.5t-95.5 -255.5q0 -102 72.5 -173.5t181.5 -71.5q46 0 65.5 2.5t83.5 20.5l-8 -61q-46 -13 -67 -17.5t-69 -4.5q-138 0 -233 84t-95 222q0 182 117 299t298 117q61 0 101.5 -7.5t86.5 -28.5zM235 -127
q16 -11 39 -19.5t49 -8.5q22 0 38 10.5t16 35.5q0 17 -12.5 26.5t-27.5 9.5q-12 0 -21.5 -1t-19.5 -6l38 80h32l-24 -47q12 4 32 4q30 0 48 -16t18 -47q0 -41 -32.5 -60t-77.5 -19q-32 0 -52.5 6.5t-49.5 20.5z" />
    <glyph glyph-name="Eacute" unicode="&#xc9;" horiz-adv-x="500" 
d="M181 698h344l-11 -60h-277l-51 -249h261l-11 -60h-262l-56 -269h287l-10 -60h-358zM391 883h79l-117 -144h-47z" />
    <glyph glyph-name="Ntilde" unicode="&#xd1;" horiz-adv-x="667" 
d="M179 698h82l233 -614l132 614h63l-148 -698h-82l-233 614l-134 -614h-64zM574 854q0 -36 -23.5 -63.5t-58.5 -27.5q-12 0 -25.5 4t-33.5 11.5t-29.5 10.5t-23.5 3q-17 0 -26 -10t-12 -27h-36q0 36 23.5 63.5t58.5 27.5q14 0 28.5 -4t27.5 -9.5t28.5 -10.5t27.5 -5
q33 0 38 37h36z" />
    <glyph glyph-name="Odieresis" unicode="&#xd6;" horiz-adv-x="722" 
d="M438 710q127 0 195.5 -77t68.5 -208q0 -175 -102 -306t-269 -131q-127 0 -195.5 77t-68.5 208q0 175 102 306t269 131zM333 48q132 0 216 115.5t84 255.5q0 103 -50 167t-147 64q-132 0 -216 -115.5t-84 -255.5q0 -103 50 -167t147 -64zM364 860h77l-16 -84h-77zM539 860
h77l-16 -84h-77z" />
    <glyph glyph-name="Udieresis" unicode="&#xdc;" horiz-adv-x="667" 
d="M594 266q-20 -127 -92 -202.5t-190 -75.5q-103 0 -166.5 57.5t-63.5 162.5q0 43 11 102.5t29 136.5l55 251h66l-71 -340q-8 -39 -14.5 -81.5t-6.5 -65.5q0 -76 42.5 -119.5t117.5 -43.5q86 0 139 53.5t72 141.5l101 455h64zM319 851h77l-16 -84h-77zM494 851h77l-16 -84
h-77z" />
    <glyph glyph-name="aacute" unicode="&#xe1;" horiz-adv-x="500" 
d="M409 121q-8 -30 -13.5 -64t-5.5 -57h-63q2 19 4 39t6 36q-33 -46 -75.5 -66.5t-100.5 -20.5q-61 0 -103.5 40.5t-42.5 102.5q0 101 86.5 140.5t206.5 39.5q20 0 31 -0.5t38 -3.5q3 23 3 51q0 52 -28 81t-81 29q-41 0 -75.5 -11.5t-75.5 -32.5l7 64q30 12 73 23t81 11
q82 0 125 -43t43 -123q0 -16 -3 -41t-10 -56zM183 42q82 0 128 61t58 152l-62 2q-90 0 -156.5 -25t-66.5 -100q0 -42 29 -66t70 -24zM343 722h79l-117 -144h-47z" />
    <glyph glyph-name="agrave" unicode="&#xe0;" horiz-adv-x="500" 
d="M409 121q-8 -30 -13.5 -64t-5.5 -57h-63q2 19 4 39t6 36q-33 -46 -75.5 -66.5t-100.5 -20.5q-61 0 -103.5 40.5t-42.5 102.5q0 101 86.5 140.5t206.5 39.5q20 0 31 -0.5t38 -3.5q3 23 3 51q0 52 -28 81t-81 29q-41 0 -75.5 -11.5t-75.5 -32.5l7 64q30 12 73 23t81 11
q82 0 125 -43t43 -123q0 -16 -3 -41t-10 -56zM183 42q82 0 128 61t58 152l-62 2q-90 0 -156.5 -25t-66.5 -100q0 -42 29 -66t70 -24zM362 578h-42l-122 144h79z" />
    <glyph glyph-name="acircumflex" unicode="&#xe2;" horiz-adv-x="500" 
d="M409 121q-8 -30 -13.5 -64t-5.5 -57h-63q2 19 4 39t6 36q-33 -46 -75.5 -66.5t-100.5 -20.5q-61 0 -103.5 40.5t-42.5 102.5q0 101 86.5 140.5t206.5 39.5q20 0 31 -0.5t38 -3.5q3 23 3 51q0 52 -28 81t-81 29q-41 0 -75.5 -11.5t-75.5 -32.5l7 64q30 12 73 23t81 11
q82 0 125 -43t43 -123q0 -16 -3 -41t-10 -56zM183 42q82 0 128 61t58 152l-62 2q-90 0 -156.5 -25t-66.5 -100q0 -42 29 -66t70 -24zM288 722h76l75 -144h-44l-72 102l-108 -102h-44z" />
    <glyph glyph-name="adieresis" unicode="&#xe4;" horiz-adv-x="500" 
d="M409 121q-8 -30 -13.5 -64t-5.5 -57h-63q2 19 4 39t6 36q-33 -46 -75.5 -66.5t-100.5 -20.5q-61 0 -103.5 40.5t-42.5 102.5q0 101 86.5 140.5t206.5 39.5q20 0 31 -0.5t38 -3.5q3 23 3 51q0 52 -28 81t-81 29q-41 0 -75.5 -11.5t-75.5 -32.5l7 64q30 12 73 23t81 11
q82 0 125 -43t43 -123q0 -16 -3 -41t-10 -56zM183 42q82 0 128 61t58 152l-62 2q-90 0 -156.5 -25t-66.5 -100q0 -42 29 -66t70 -24zM205 690h77l-16 -84h-77zM380 690h77l-16 -84h-77z" />
    <glyph glyph-name="atilde" unicode="&#xe3;" horiz-adv-x="500" 
d="M409 121q-8 -30 -13.5 -64t-5.5 -57h-63q2 19 4 39t6 36q-33 -46 -75.5 -66.5t-100.5 -20.5q-61 0 -103.5 40.5t-42.5 102.5q0 101 86.5 140.5t206.5 39.5q20 0 31 -0.5t38 -3.5q3 23 3 51q0 52 -28 81t-81 29q-41 0 -75.5 -11.5t-75.5 -32.5l7 64q30 12 73 23t81 11
q82 0 125 -43t43 -123q0 -16 -3 -41t-10 -56zM183 42q82 0 128 61t58 152l-62 2q-90 0 -156.5 -25t-66.5 -100q0 -42 29 -66t70 -24zM442 693q0 -36 -23.5 -63.5t-58.5 -27.5q-12 0 -25.5 4t-33.5 11.5t-29.5 10.5t-23.5 3q-17 0 -26 -10t-12 -27h-36q0 36 23.5 63.5
t58.5 27.5q14 0 28.5 -4t27.5 -9.5t28.5 -10.5t27.5 -5q33 0 38 37h36z" />
    <glyph glyph-name="aring" unicode="&#xe5;" horiz-adv-x="500" 
d="M409 121q-8 -30 -13.5 -64t-5.5 -57h-63q2 19 4 39t6 36q-33 -46 -75.5 -66.5t-100.5 -20.5q-61 0 -103.5 40.5t-42.5 102.5q0 101 86.5 140.5t206.5 39.5q20 0 31 -0.5t38 -3.5q3 23 3 51q0 52 -28 81t-81 29q-41 0 -75.5 -11.5t-75.5 -32.5l7 64q30 12 73 23t81 11
q82 0 125 -43t43 -123q0 -16 -3 -41t-10 -56zM183 42q82 0 128 61t58 152l-62 2q-90 0 -156.5 -25t-66.5 -100q0 -42 29 -66t70 -24zM288 759q40 0 69.5 -29.5t29.5 -69.5t-29 -70t-70 -30t-70.5 29.5t-29.5 70.5t30 70t70 29zM288 596q28 0 45.5 18.5t17.5 45.5t-17 45
t-46 18t-46.5 -17.5t-17.5 -45.5q0 -27 17.5 -45.5t46.5 -18.5z" />
    <glyph glyph-name="ccedilla" unicode="&#xe7;" horiz-adv-x="444" 
d="M449 445q-14 8 -52 15.5t-66 7.5q-105 0 -164 -68t-59 -174q0 -78 47 -131t118 -53q23 0 42 4t66 20l-8 -63q-17 -6 -49 -10.5t-67 -4.5q-103 0 -160.5 70.5t-57.5 162.5q0 139 77 220t222 81q31 0 69.5 -6t59.5 -14zM125 -127q16 -11 39 -19.5t49 -8.5q22 0 38 10.5
t16 35.5q0 17 -12.5 26.5t-27.5 9.5q-12 0 -21.5 -1t-19.5 -6l38 80h32l-24 -47q12 4 32 4q30 0 48 -16t18 -47q0 -41 -32.5 -60t-77.5 -19q-32 0 -52.5 6.5t-49.5 20.5z" />
    <glyph glyph-name="eacute" unicode="&#xe9;" horiz-adv-x="500" 
d="M105 237l-3 -41q0 -73 42.5 -113.5t112.5 -40.5q34 0 67 6.5t82 27.5l-5 -61q-30 -11 -64.5 -19t-87.5 -8q-94 0 -152 53.5t-58 154.5q0 134 72.5 230t191.5 96q89 0 134.5 -50.5t45.5 -139.5q0 -26 -3 -54.5t-4 -40.5h-371zM417 291l3 39q0 66 -28.5 102t-88.5 36
q-71 0 -122 -51.5t-65 -125.5h301zM343 722h79l-117 -144h-47z" />
    <glyph glyph-name="egrave" unicode="&#xe8;" horiz-adv-x="500" 
d="M105 237l-3 -41q0 -73 42.5 -113.5t112.5 -40.5q34 0 67 6.5t82 27.5l-5 -61q-30 -11 -64.5 -19t-87.5 -8q-94 0 -152 53.5t-58 154.5q0 134 72.5 230t191.5 96q89 0 134.5 -50.5t45.5 -139.5q0 -26 -3 -54.5t-4 -40.5h-371zM417 291l3 39q0 66 -28.5 102t-88.5 36
q-71 0 -122 -51.5t-65 -125.5h301zM362 578h-42l-122 144h79z" />
    <glyph glyph-name="ecircumflex" unicode="&#xea;" horiz-adv-x="500" 
d="M105 237l-3 -41q0 -73 42.5 -113.5t112.5 -40.5q34 0 67 6.5t82 27.5l-5 -61q-30 -11 -64.5 -19t-87.5 -8q-94 0 -152 53.5t-58 154.5q0 134 72.5 230t191.5 96q89 0 134.5 -50.5t45.5 -139.5q0 -26 -3 -54.5t-4 -40.5h-371zM417 291l3 39q0 66 -28.5 102t-88.5 36
q-71 0 -122 -51.5t-65 -125.5h301zM288 722h76l75 -144h-44l-72 102l-108 -102h-44z" />
    <glyph glyph-name="edieresis" unicode="&#xeb;" horiz-adv-x="500" 
d="M105 237l-3 -41q0 -73 42.5 -113.5t112.5 -40.5q34 0 67 6.5t82 27.5l-5 -61q-30 -11 -64.5 -19t-87.5 -8q-94 0 -152 53.5t-58 154.5q0 134 72.5 230t191.5 96q89 0 134.5 -50.5t45.5 -139.5q0 -26 -3 -54.5t-4 -40.5h-371zM417 291l3 39q0 66 -28.5 102t-88.5 36
q-71 0 -122 -51.5t-65 -125.5h301zM205 690h77l-16 -84h-77zM380 690h77l-16 -84h-77z" />
    <glyph glyph-name="iacute" unicode="&#xed;" horiz-adv-x="222" 
d="M136 510h66l-108 -510h-66zM204 722h79l-117 -144h-47z" />
    <glyph glyph-name="igrave" unicode="&#xec;" horiz-adv-x="222" 
d="M136 510h66l-108 -510h-66zM223 578h-42l-122 144h79z" />
    <glyph glyph-name="icircumflex" unicode="&#xee;" horiz-adv-x="222" 
d="M136 510h66l-108 -510h-66zM149 722h76l75 -144h-44l-72 102l-108 -102h-44z" />
    <glyph glyph-name="idieresis" unicode="&#xef;" horiz-adv-x="222" 
d="M136 510h66l-108 -510h-66zM66 690h77l-16 -84h-77zM241 690h77l-16 -84h-77z" />
    <glyph glyph-name="ntilde" unicode="&#xf1;" 
d="M116 429q6 32 9 49t3 32h63q-5 -52 -5.5 -55t-5.5 -22q28 41 72 65t92 24q71 0 115.5 -39t44.5 -109q0 -22 -4.5 -49t-10.5 -56l-57 -269h-66l58 281q5 24 8 44.5t3 44.5q0 45 -25.5 71.5t-72.5 26.5q-77 0 -125 -63.5t-68 -162.5l-50 -242h-66zM470 693
q0 -36 -23.5 -63.5t-58.5 -27.5q-12 0 -25.5 4t-33.5 11.5t-29.5 10.5t-23.5 3q-17 0 -26 -10t-12 -27h-36q0 36 23.5 63.5t58.5 27.5q14 0 28.5 -4t27.5 -9.5t28.5 -10.5t27.5 -5q33 0 38 37h36z" />
    <glyph glyph-name="oacute" unicode="&#xf3;" 
d="M323 522q96 0 149.5 -59.5t53.5 -159.5q0 -132 -77.5 -223.5t-205.5 -91.5q-93 0 -148.5 62.5t-55.5 159.5q0 132 78.5 222t205.5 90zM251 42q92 0 149 81t57 179q0 77 -35 121.5t-107 44.5q-99 0 -153 -80.5t-54 -187.5q0 -68 39 -113t104 -45zM371 722h79l-117 -144
h-47z" />
    <glyph glyph-name="ograve" unicode="&#xf2;" 
d="M323 522q96 0 149.5 -59.5t53.5 -159.5q0 -132 -77.5 -223.5t-205.5 -91.5q-93 0 -148.5 62.5t-55.5 159.5q0 132 78.5 222t205.5 90zM251 42q92 0 149 81t57 179q0 77 -35 121.5t-107 44.5q-99 0 -153 -80.5t-54 -187.5q0 -68 39 -113t104 -45zM390 578h-42l-122 144h79
z" />
    <glyph glyph-name="ocircumflex" unicode="&#xf4;" 
d="M323 522q96 0 149.5 -59.5t53.5 -159.5q0 -132 -77.5 -223.5t-205.5 -91.5q-93 0 -148.5 62.5t-55.5 159.5q0 132 78.5 222t205.5 90zM251 42q92 0 149 81t57 179q0 77 -35 121.5t-107 44.5q-99 0 -153 -80.5t-54 -187.5q0 -68 39 -113t104 -45zM316 722h76l75 -144h-44
l-72 102l-108 -102h-44z" />
    <glyph glyph-name="odieresis" unicode="&#xf6;" 
d="M323 522q96 0 149.5 -59.5t53.5 -159.5q0 -132 -77.5 -223.5t-205.5 -91.5q-93 0 -148.5 62.5t-55.5 159.5q0 132 78.5 222t205.5 90zM251 42q92 0 149 81t57 179q0 77 -35 121.5t-107 44.5q-99 0 -153 -80.5t-54 -187.5q0 -68 39 -113t104 -45zM233 690h77l-16 -84h-77z
M408 690h77l-16 -84h-77z" />
    <glyph glyph-name="otilde" unicode="&#xf5;" 
d="M323 522q96 0 149.5 -59.5t53.5 -159.5q0 -132 -77.5 -223.5t-205.5 -91.5q-93 0 -148.5 62.5t-55.5 159.5q0 132 78.5 222t205.5 90zM251 42q92 0 149 81t57 179q0 77 -35 121.5t-107 44.5q-99 0 -153 -80.5t-54 -187.5q0 -68 39 -113t104 -45zM470 693
q0 -36 -23.5 -63.5t-58.5 -27.5q-12 0 -25.5 4t-33.5 11.5t-29.5 10.5t-23.5 3q-17 0 -26 -10t-12 -27h-36q0 36 23.5 63.5t58.5 27.5q14 0 28.5 -4t27.5 -9.5t28.5 -10.5t27.5 -5q33 0 38 37h36z" />
    <glyph glyph-name="uacute" unicode="&#xfa;" 
d="M445 81q-6 -32 -9 -49t-3 -32h-63q5 52 5.5 55t5.5 22q-28 -41 -72 -65t-92 -24q-71 0 -115.5 39t-44.5 109q0 22 4.5 49t10.5 56l57 269h66l-58 -281q-5 -24 -8 -44.5t-3 -44.5q0 -45 25.5 -71.5t72.5 -26.5q77 0 125 63.5t68 162.5l50 242h66zM371 722h79l-117 -144
h-47z" />
    <glyph glyph-name="ugrave" unicode="&#xf9;" 
d="M445 81q-6 -32 -9 -49t-3 -32h-63q5 52 5.5 55t5.5 22q-28 -41 -72 -65t-92 -24q-71 0 -115.5 39t-44.5 109q0 22 4.5 49t10.5 56l57 269h66l-58 -281q-5 -24 -8 -44.5t-3 -44.5q0 -45 25.5 -71.5t72.5 -26.5q77 0 125 63.5t68 162.5l50 242h66zM390 578h-42l-122 144h79
z" />
    <glyph glyph-name="ucircumflex" unicode="&#xfb;" 
d="M445 81q-6 -32 -9 -49t-3 -32h-63q5 52 5.5 55t5.5 22q-28 -41 -72 -65t-92 -24q-71 0 -115.5 39t-44.5 109q0 22 4.5 49t10.5 56l57 269h66l-58 -281q-5 -24 -8 -44.5t-3 -44.5q0 -45 25.5 -71.5t72.5 -26.5q77 0 125 63.5t68 162.5l50 242h66zM316 722h76l75 -144h-44
l-72 102l-108 -102h-44z" />
    <glyph glyph-name="udieresis" unicode="&#xfc;" 
d="M445 81q-6 -32 -9 -49t-3 -32h-63q5 52 5.5 55t5.5 22q-28 -41 -72 -65t-92 -24q-71 0 -115.5 39t-44.5 109q0 22 4.5 49t10.5 56l57 269h66l-58 -281q-5 -24 -8 -44.5t-3 -44.5q0 -45 25.5 -71.5t72.5 -26.5q77 0 125 63.5t68 162.5l50 242h66zM233 690h77l-16 -84h-77z
M408 690h77l-16 -84h-77z" />
    <glyph glyph-name="dagger" unicode="&#x2020;" 
d="M128 510h171l39 188h62l-39 -188h174l-12 -54h-173l-95 -456h-62l95 456h-172z" />
    <glyph glyph-name="degree" unicode="&#xb0;" horiz-adv-x="400" 
d="M153 556q0 -42 32.5 -71.5t74.5 -29.5t74.5 29.5t32.5 71.5q0 47 -30 74t-77 27q-46 0 -76.5 -27.5t-30.5 -73.5zM418 556q0 -64 -46.5 -106.5t-111.5 -42.5q-66 0 -112 41.5t-46 107.5q0 64 46.5 106.5t111.5 42.5q66 0 112 -41.5t46 -107.5z" />
    <glyph glyph-name="cent" unicode="&#xa2;" 
d="M377 468h-5q-105 0 -164 -68t-59 -174q0 -58 27 -104t72 -66zM469 630l-35 -113q47 -5 74 -15l-18 -57q-7 4 -30 10t-43 9l-132 -419l29 -3q23 0 42 4t66 20l-8 -63q-17 -6 -49 -10.5t-67 -4.5l-30 2l-40 -127h-41l43 135q-72 23 -111 86t-39 137q0 139 77 220t222 81
l15 -1l34 109h41z" />
    <glyph glyph-name="sterling" unicode="&#xa3;" 
d="M33 60h101l61 287h-90l11 54h89l13 56q27 120 82 184t171 64q32 0 67 -6.5t58 -19.5l-20 -58q-48 24 -107 24q-85 0 -124 -51t-60 -145l-11 -48h171l-11 -54h-169l-61 -287h252l-13 -60h-423z" />
    <glyph glyph-name="section" unicode="&#xa7;" 
d="M500 621q-34 17 -63.5 26t-65.5 9q-61 0 -95.5 -25t-34.5 -76q0 -44 59 -75t117 -59q62 -40 62 -101q0 -50 -36.5 -92t-89.5 -74q63 -38 63 -113q0 -72 -63.5 -116.5t-144.5 -44.5q-57 0 -90.5 8.5t-90.5 32.5l19 59q73 -46 154 -46q63 0 105 25.5t42 80.5q0 53 -63 87
q-59 28 -117 57q-64 42 -64 115q0 55 38.5 94.5t96.5 60.5q-66 35 -66 109q0 69 54.5 108t137.5 39q39 0 82.5 -9.5t76.5 -26.5zM272 431q-69 -49 -87.5 -66t-18.5 -59q0 -54 55.5 -82.5t91.5 -46.5q41 31 72 66t31 70q0 39 -56 72z" />
    <glyph glyph-name="bullet" unicode="&#x2022;" horiz-adv-x="500" 
d="M261 524q72 0 123.5 -51.5t51.5 -123.5t-51 -123t-124 -51q-72 0 -123 51t-51 123q0 71 51 123t123 52z" />
    <glyph glyph-name="paragraph" unicode="&#xb6;" horiz-adv-x="600" 
d="M283 320q-80 0 -138 49t-58 127q0 87 63.5 144.5t181.5 57.5h288l-165 -806h-63l154 752h-133l-154 -752h-63z" />
    <glyph glyph-name="germandbls" unicode="&#xdf;" 
d="M282 421q84 0 140.5 41.5t56.5 122.5q0 57 -30 90t-84 33q-62 0 -100.5 -53.5t-53.5 -126.5l-111 -528h-66l107 509q28 135 81 194t147 59q83 0 131 -44t48 -128q0 -78 -51 -135t-127 -57q65 -9 102.5 -50.5t37.5 -104.5q0 -113 -65.5 -181.5t-174.5 -68.5q-67 0 -110 17
l18 59q37 -22 90 -22q81 0 127 52.5t46 134.5q0 70 -45.5 101.5t-122.5 31.5z" />
    <glyph glyph-name="registered" unicode="&#xae;" horiz-adv-x="800" 
d="M423 710q149 0 255 -106t106 -255t-106 -255t-255 -106t-255 106t-106 255t106 255t255 106zM424 42q125 0 208 88t83 219q0 130 -83.5 218.5t-207.5 88.5q-126 0 -209.5 -88.5t-83.5 -218.5t83.5 -218.5t209.5 -88.5zM285 561h162q145 0 145 -119q0 -52 -29.5 -84.5
t-79.5 -32.5l120 -187h-73l-118 187h-58v-187h-69v423zM354 379h82q44 0 65.5 13.5t21.5 52.5q0 33 -24.5 47.5t-62.5 14.5h-82v-128z" />
    <glyph glyph-name="copyright" unicode="&#xa9;" horiz-adv-x="800" 
d="M424 42q125 0 208 88t83 219q0 130 -83.5 218.5t-207.5 88.5q-126 0 -209.5 -88.5t-83.5 -218.5t83.5 -218.5t209.5 -88.5zM614 280q-15 -72 -63 -114t-115 -42q-96 0 -156 64t-60 161q0 100 57 163t156 63q71 0 120.5 -39t59.5 -112h-60q-9 44 -40.5 70.5t-78.5 26.5
q-69 0 -107 -47t-38 -124q0 -73 40 -122.5t107 -49.5q46 0 77.5 28t39.5 74h61zM423 710q149 0 255 -106t106 -255t-106 -255t-255 -106t-255 106t-106 255t106 255t255 106z" />
    <glyph glyph-name="trademark" unicode="&#x2122;" horiz-adv-x="990" 
d="M225 650h-131v48h325v-48h-131v-366h-63v366zM505 698h102l122 -319l122 319h102v-414h-63v360l-140 -360h-43l-137 360l-2 -360h-63v414z" />
    <glyph glyph-name="acute" unicode="&#xb4;" horiz-adv-x="222" 
d="M204 722h79l-117 -144h-47z" />
    <glyph glyph-name="dieresis" unicode="&#xa8;" horiz-adv-x="222" 
d="M66 690h77l-16 -84h-77zM241 690h77l-16 -84h-77z" />
    <glyph glyph-name="notequal" unicode="&#x2260;" horiz-adv-x="549" 
d="M413 336h91v-64h-149l-73 -72h222v-64h-281l-118 -118l-43 44l74 74h-91v64h150l73 72h-223v64h281l118 118l44 -44z" />
    <glyph glyph-name="AE" unicode="&#xc6;" horiz-adv-x="889" 
d="M486 698h428l-12 -60h-306l-28 -249h264l-13 -60h-258l-35 -269h265l-14 -60h-327l24 187h-293l-143 -187h-80zM531 644l-306 -397h256z" />
    <glyph glyph-name="Oslash" unicode="&#xd8;" horiz-adv-x="722" 
d="M585 581q-26 34 -62 51.5t-87 17.5q-132 0 -216 -115.5t-84 -255.5q0 -73 25 -123zM184 117q25 -33 61.5 -51t87.5 -18q132 0 216 115.5t84 255.5q0 70 -25 123zM749 683l-88 -88q41 -68 41 -170q0 -175 -102 -306t-269 -131q-126 0 -197 79l-81 -81l-33 29l88 88
q-41 68 -41 170q0 175 102 306t269 131q126 0 197 -79l81 81z" />
    <glyph glyph-name="infinity" unicode="&#x221e;" horiz-adv-x="713" 
d="M383 271q23 -45 58 -70q35 -23 77 -23q52 0 84.5 35t32.5 90q0 56 -30 89.5t-80 33.5q-37 0 -71 -36t-71 -119zM330 327q-26 46 -59 69.5t-76 23.5q-51 0 -84 -35t-33 -90q0 -54 29.5 -88.5t76.5 -34.5q40 0 71.5 31.5t74.5 123.5zM366 238q-33 -62 -71.5 -93t-85.5 -31
q-66 0 -111 52.5t-45 131.5q0 83 41 134.5t105 51.5q47 0 82.5 -29.5t65.5 -94.5q31 62 69.5 93t87.5 31q63 0 109 -53t46 -131q0 -83 -40.5 -134.5t-104.5 -51.5q-46 0 -84 30q-36 31 -64 94z" />
    <glyph glyph-name="plusminus" unicode="&#xb1;" horiz-adv-x="600" 
d="M61 338h219v169h69v-169h219v-69h-219v-169h-69v169h-219v69zM61 69h507v-69h-507v69z" />
    <glyph glyph-name="lessequal" unicode="&#x2264;" horiz-adv-x="549" 
d="M506 18h-463v68h463v-68zM162 280l344 -107v-70l-462 145v65l462 145v-70z" />
    <glyph glyph-name="greaterequal" unicode="&#x2265;" horiz-adv-x="549" 
d="M506 18h-463v68h463v-68zM506 248l-463 -145v70l344 107l-344 108v70l463 -145v-65z" />
    <glyph glyph-name="yen" unicode="&#xa5;" 
d="M226 175h-137l11 48h136l18 81h-144l12 48h110l-139 346h69l134 -346l285 346h79l-295 -346h123l-14 -48h-153l-18 -81h157l-11 -48h-157l-39 -175h-64z" />
    <glyph glyph-name="mu" unicode="&#xb5;" 
d="M129 510h66l-58 -281q-5 -24 -8 -44.5t-3 -44.5q0 -45 25.5 -71.5t72.5 -26.5q77 0 125 63.5t68 162.5l50 242h66l-88 -429q-6 -32 -9 -49t-3 -32h-63q5 52 5.5 55t5.5 22q-28 -41 -72 -65t-92 -24q-88 0 -127 50l-53 -248h-66z" />
    <glyph glyph-name="partialdiff" unicode="&#x2202;" horiz-adv-x="494" 
d="M256 349q-52 0 -86 -60t-34 -161q0 -57 21.5 -88t62.5 -31q53 0 87 62t34 153q0 58 -21.5 91.5t-63.5 33.5zM358 287q4 14 6.5 28t2.5 31l3 89q0 85 -15.5 126t-47.5 41q-18 0 -50 -35t-56 -35q-16 0 -25.5 7.5t-11.5 24.5q0 29 30.5 50t71.5 21q77 0 111.5 -54
t46.5 -103t12 -111q0 -163 -64.5 -271.5t-157.5 -108.5q-68 0 -110 51t-42 137q0 82 53 143.5t125 61.5q44 0 72.5 -22t45.5 -71z" />
    <glyph glyph-name="summation" unicode="&#x3a3;" horiz-adv-x="713" 
d="M618 643l15 -129h-44q-32 105 -85 144t-169 39h-132l315 -431l-344 -394h187q122 0 172.5 31.5t82.5 116.5h45l-30 -130l-2 -7q-23 -99 -111 -99h-482l389 446l-375 514h460q65 0 82 -15q17 -13 26 -86z" />
    <glyph glyph-name="product" unicode="&#x220f;" horiz-adv-x="823" 
d="M118 -176v880h-88v40h767v-40h-88v-880h88v-40h-264v40h84v880h-407v-880h84v-40h-264v40h88z" />
    <glyph glyph-name="pi" unicode="&#x3c0;" horiz-adv-x="549" 
d="M404 373l-1 -24l-3 -150v-40q0 -84 8.5 -105t30.5 -21q28 0 41 29q17 31 17 89h25v-5q0 -80 -26 -118t-80 -38q-56 0 -79.5 40t-23.5 164l1 78l3 104l-50 1l-77 2q0 -234 -23 -311.5t-80 -77.5q-35 0 -52.5 29t-17.5 86v19h24q0 -27 9.5 -39.5t27.5 -12.5q42 0 54.5 47
t18 110.5t5.5 149.5h-22q-38 0 -59.5 -13.5t-27.5 -39.5h-23q0 34 10 57.5t36.5 44.5t112.5 21l102 -3l152 -3q34 0 49.5 7t16.5 21l23 1q0 -53 -23.5 -76.5t-74.5 -23.5h-14z" />
    <glyph glyph-name="integral" unicode="&#x222b;" horiz-adv-x="274" 
d="M283 757q36 0 58.5 -18.5t22.5 -48.5q0 -20 -13 -34t-36 -14q-29 0 -44 32t-29 32q-57 0 -57 -310l-3 -98q0 -63 -4.5 -120t-14 -128t-31 -120t-60 -80t-81.5 -31q-35 0 -58 18.5t-23 48.5q0 22 12.5 34.5t36.5 12.5q29 0 44 -31t30 -32q57 0 57 324l2 84q0 60 4 116
t13.5 127.5t31.5 122.5t59.5 82t82.5 31z" />
    <glyph glyph-name="ordfeminine" unicode="&#xaa;" horiz-adv-x="325" 
d="M143 684q29 14 51 20t49 6q53 0 85 -26t32 -77q0 -17 -7.5 -47.5t-17 -65.5t-12.5 -59t-5 -39h-45q1 14 3 27.5t4 18.5q-42 -54 -115 -54q-41 0 -71 25t-30 65q0 66 60 89t138 23h45l2 18q0 29 -19.5 44.5t-53.5 15.5q-21 0 -39 -5t-59 -27zM179 430q54 0 83.5 34
t37.5 84h-40q-58 0 -101.5 -13.5t-43.5 -55.5q0 -22 18.5 -35.5t45.5 -13.5z" />
    <glyph glyph-name="ordmasculine" unicode="&#xba;" horiz-adv-x="361" 
d="M270 710q62 0 100 -37t38 -95q0 -75 -53.5 -132.5t-136.5 -57.5q-61 0 -99.5 39.5t-38.5 96.5q0 74 54 130t136 56zM224 430q59 0 96 46.5t37 100.5q0 40 -23.5 65.5t-68.5 25.5q-64 0 -99 -46t-35 -104q0 -36 25 -62t68 -26z" />
    <glyph glyph-name="Omega" unicode="&#x3a9;" horiz-adv-x="768" 
d="M593 90q48 0 68 19t20 67h23v-176h-272v180q77 15 122.5 76.5t45.5 151.5q0 106 -59 168.5t-157 62.5t-157 -62.5t-59 -168.5q0 -90 44.5 -151t123.5 -77v-180h-272v176h23q0 -48 19 -67t69 -19h123v59q-118 21 -183 89t-65 170q0 121 92.5 194t241.5 73t241.5 -73.5
t92.5 -193.5q0 -100 -64 -168t-184 -91v-59h123z" />
    <glyph glyph-name="ae" unicode="&#xe6;" horiz-adv-x="778" 
d="M415 237q-3 -16 -3.5 -22t-0.5 -23q0 -60 36.5 -105t104.5 -45q32 0 64.5 7t62.5 19l-6 -60q-28 -10 -55 -15t-57 -5q-78 0 -130 31.5t-69 102.5q-18 -68 -67.5 -101t-119.5 -33q-67 0 -116 36.5t-49 98.5q0 79 67 123.5t199 44.5h81l3 51q0 60 -25.5 93t-76.5 33
q-33 0 -67 -11t-69 -31l9 65q35 15 69 23t72 8q55 0 93.5 -24t48.5 -78q26 50 75 76t105 26q86 0 129 -46t43 -129q0 -34 -3.5 -65t-4.5 -45h-343zM177 42q77 0 118.5 55.5t53.5 139.5h-47q-91 0 -157 -23t-66 -83q0 -41 29 -65t69 -24zM698 291q3 16 4 24t1 31
q0 59 -25.5 90.5t-83.5 31.5q-74 0 -116 -49.5t-54 -127.5h274z" />
    <glyph glyph-name="oslash" unicode="&#xf8;" 
d="M422 421q-19 23 -44.5 35t-62.5 12q-99 0 -153 -80.5t-54 -187.5q0 -45 18 -81zM146 89q37 -47 105 -47q92 0 149 81t57 179q0 53 -16 88zM546 498l-57 -58q37 -54 37 -137q0 -132 -77.5 -223.5t-205.5 -91.5q-85 0 -141 56l-58 -59l-26 23l61 63q-40 57 -40 139
q0 132 78.5 222t205.5 90q91 0 144 -55l53 54z" />
    <glyph glyph-name="questiondown" unicode="&#xbf;" horiz-adv-x="500" 
d="M345 -178q-39 -11 -66.5 -16.5t-56.5 -5.5q-81 0 -135.5 40.5t-54.5 120.5q0 41 22.5 81.5t92 98.5t102 91t41.5 77l7 32h58l-8 -39q-8 -42 -38.5 -84.5t-95 -94.5t-88.5 -82.5t-24 -79.5q0 -50 41.5 -75.5t92.5 -25.5q28 0 62 7t59 19zM380 426h-83l17 84h82z" />
    <glyph glyph-name="exclamdown" unicode="&#xa1;" horiz-adv-x="389" 
d="M179 341h60l-100 -529h-84zM270 426h-82l18 84h81z" />
    <glyph glyph-name="logicalnot" unicode="&#xac;" horiz-adv-x="600" 
d="M61 388h507v-274h-69v205h-438v69z" />
    <glyph glyph-name="radical" unicode="&#x221a;" horiz-adv-x="549" 
d="M594 764h-57l-290 -784h-32l-156 431l-61 -22l-12 39l138 48l125 -346l252 681h93v-47z" />
    <glyph glyph-name="florin" unicode="&#x192;" 
d="M441 365h-112l-44 -267q-17 -103 -33 -162.5t-54 -105.5t-103 -46q-29 0 -42 2.5t-27 7.5l18 58q21 -14 44 -14q60 0 86 69.5t51 220.5l39 237h-112l12 54h110l13 66q21 107 62 163.5t115 56.5q37 0 69 -16l-14 -53q-23 15 -55 15q-49 0 -77 -55t-39 -119l-10 -58h115z
" />
    <glyph glyph-name="approxequal" unicode="&#x2248;" horiz-adv-x="549" 
d="M15 100v77q49 31 87 44.5t74 13.5q44 0 115 -24t99 -24t61.5 15t82.5 52v-78q-42 -28 -76.5 -41.5t-72.5 -13.5q-32 0 -104 23.5t-116 23.5q-28 0 -53.5 -11t-48 -24.5t-48.5 -32.5zM15 219v77q23 14 43.5 25t50.5 21.5t66 10.5q42 0 114.5 -23.5t100.5 -23.5
q27 0 60 14.5t84 51.5v-77q-18 -12 -41 -24t-49 -21.5t-59 -9.5t-104.5 23.5t-110.5 23.5q-35 0 -66 -13.5t-89 -54.5z" />
    <glyph glyph-name="Delta" unicode="&#x2206;" horiz-adv-x="612" 
d="M92 45h373l-186 459zM595 0h-574l276 672h22z" />
    <glyph glyph-name="guillemotleft" unicode="&#xab;" horiz-adv-x="500" 
d="M215 269l190 205h72l-196 -205l153 -205h-66zM32 269l190 205h72l-196 -205l153 -205h-66z" />
    <glyph glyph-name="guillemotright" unicode="&#xbb;" horiz-adv-x="500" 
d="M285 269l-190 -205h-72l196 205l-153 205h66zM468 269l-190 -205h-72l196 205l-153 205h66z" />
    <glyph glyph-name="ellipsis" unicode="&#x2026;" horiz-adv-x="1000" 
d="M94 84h82l-17 -84h-82zM427 84h82l-17 -84h-82zM760 84h82l-17 -84h-82z" />
    <glyph glyph-name="nonbreakingspace" unicode="&#xa0;" horiz-adv-x="250" 
 />
    <glyph glyph-name="Agrave" unicode="&#xc0;" horiz-adv-x="667" 
d="M420 629l-236 -382h309zM391 698h82l136 -698h-70l-35 187h-357l-115 -187h-74zM494 739h-42l-122 144h79z" />
    <glyph glyph-name="Atilde" unicode="&#xc3;" horiz-adv-x="667" 
d="M420 629l-236 -382h309zM391 698h82l136 -698h-70l-35 187h-357l-115 -187h-74zM574 854q0 -36 -23.5 -63.5t-58.5 -27.5q-12 0 -25.5 4t-33.5 11.5t-29.5 10.5t-23.5 3q-17 0 -26 -10t-12 -27h-36q0 36 23.5 63.5t58.5 27.5q14 0 28.5 -4t27.5 -9.5t28.5 -10.5t27.5 -5
q33 0 38 37h36z" />
    <glyph glyph-name="Otilde" unicode="&#xd5;" horiz-adv-x="722" 
d="M438 710q127 0 195.5 -77t68.5 -208q0 -175 -102 -306t-269 -131q-127 0 -195.5 77t-68.5 208q0 175 102 306t269 131zM333 48q132 0 216 115.5t84 255.5q0 103 -50 167t-147 64q-132 0 -216 -115.5t-84 -255.5q0 -103 50 -167t147 -64zM601 863q0 -36 -23.5 -63.5
t-58.5 -27.5q-12 0 -25.5 4t-33.5 11.5t-29.5 10.5t-23.5 3q-17 0 -26 -10t-12 -27h-36q0 36 23.5 63.5t58.5 27.5q14 0 28.5 -4t27.5 -9.5t28.5 -10.5t27.5 -5q33 0 38 37h36z" />
    <glyph glyph-name="OE" unicode="&#x152;" horiz-adv-x="889" 
d="M556 633q-30 6 -49.5 9t-40.5 3q-148 0 -239 -94t-91 -244q0 -107 56 -180.5t159 -73.5q22 0 42 2t39 8zM902 638h-278l-52 -249h262l-14 -60h-260l-59 -269h287l-12 -60h-327q-17 0 -47 -3.5t-39 -3.5q-140 0 -218 82t-78 224q0 177 108.5 291.5t284.5 114.5
q12 0 46.5 -3.5t51.5 -3.5h356z" />
    <glyph glyph-name="oe" unicode="&#x153;" horiz-adv-x="833" 
d="M479 237q-3 -12 -3 -29v-9q0 -73 33.5 -115t101.5 -42q32 0 62.5 7.5t63.5 22.5l-6 -61q-37 -11 -65 -17t-58 -6q-72 0 -117.5 29t-66.5 95q-28 -55 -76.5 -89.5t-111.5 -34.5q-92 0 -146.5 63.5t-54.5 158.5q0 125 70.5 218.5t192.5 93.5q64 0 108.5 -32.5t61.5 -90.5
q27 57 75.5 90t111.5 33q82 0 120.5 -46t38.5 -131q0 -33 -3 -62.5t-4 -45.5h-328zM748 291l3 53q0 57 -21 90.5t-75 33.5q-65 0 -107.5 -51t-58.5 -126h259zM236 42q86 0 134.5 85.5t48.5 174.5q0 71 -30.5 118.5t-86.5 47.5q-101 0 -149.5 -77t-48.5 -184q0 -67 34 -116
t98 -49z" />
    <glyph glyph-name="endash" unicode="&#x2013;" horiz-adv-x="500" 
d="M11 296h500l-11 -54h-500z" />
    <glyph glyph-name="emdash" unicode="&#x2014;" horiz-adv-x="1000" 
d="M11 296h1000l-11 -54h-1000z" />
    <glyph glyph-name="quotedblleft" unicode="&#x201c;" horiz-adv-x="444" 
d="M239 698h61l-102 -218h-80zM406 698h61l-102 -218h-80z" />
    <glyph glyph-name="quotedblright" unicode="&#x201d;" horiz-adv-x="444" 
d="M387 698h80l-121 -218h-61zM220 698h80l-121 -218h-61z" />
    <glyph glyph-name="quoteleft" unicode="&#x2018;" horiz-adv-x="278" 
d="M245 698h61l-102 -218h-80z" />
    <glyph glyph-name="quoteright" unicode="&#x2019;" horiz-adv-x="278" 
d="M215 698h80l-121 -218h-61z" />
    <glyph glyph-name="divide" unicode="&#xf7;" horiz-adv-x="600" 
d="M61 288h507v-69h-507v69zM315 514q26 0 45 -19t19 -45q0 -24 -19 -44t-45 -20t-45 19t-19 45t19 45t45 19zM315 121q26 0 45 -19t19 -45q0 -24 -19 -44t-45 -20t-45 19t-19 45t19 45t45 19z" />
    <glyph glyph-name="lozenge" unicode="&#x25ca;" horiz-adv-x="494" 
d="M247 688l-188 -399l188 -403l188 403zM247 807l244 -518l-244 -522l-244 522z" />
    <glyph glyph-name="ydieresis" unicode="&#xff;" horiz-adv-x="444" 
d="M139 -120q-26 -48 -56.5 -72t-80.5 -24q-21 0 -33 2.5t-28 11.5l15 54q7 -7 18 -10.5t23 -3.5q30 0 55.5 23t41.5 57l43 81l-72 511h66l52 -439l241 439h68zM177 690h77l-16 -84h-77zM352 690h77l-16 -84h-77z" />
    <glyph glyph-name="Ydieresis" unicode="&#x178;" horiz-adv-x="611" 
d="M283 295l-177 403h73l147 -346l294 346h83l-353 -403l-63 -295h-67zM309 851h77l-16 -84h-77zM484 851h77l-16 -84h-77z" />
    <glyph glyph-name="fraction" unicode="&#x2215;" horiz-adv-x="167" 
d="M302 720h57l-445 -742h-57z" />
    <glyph glyph-name="currency" unicode="&#xa4;" 
d="M103 199q-52 64 -52 150q0 43 12.5 82.5t39.5 69.5l-56 55l45 45l56 -57q30 26 69.5 39.5t81.5 13.5q89 0 150 -53l56 57l46 -45l-55 -55q25 -28 38 -69.5t13 -82.5q0 -42 -12.5 -80.5t-38.5 -69.5l55 -57l-46 -45l-56 59q-27 -26 -67 -40.5t-83 -14.5q-44 0 -82.5 13.5
t-68.5 41.5l-56 -59l-45 45zM299 161q76 0 127.5 56.5t51.5 131.5q0 74 -52 131t-127 57t-127 -56t-52 -132t52 -132t127 -56z" />
    <glyph glyph-name="guilsinglleft" unicode="&#x2039;" horiz-adv-x="333" 
d="M34 269l190 205h72l-196 -205l153 -205h-66z" />
    <glyph glyph-name="guilsinglright" unicode="&#x203a;" horiz-adv-x="333" 
d="M299 269l-190 -205h-72l196 205l-153 205h66z" />
    <glyph glyph-name="fi" unicode="&#xf001;" 
d="M171 456h-110l13 54h109l11 51q19 89 54.5 145t114.5 56q19 0 36 -2t34 -9l-15 -53q-5 2 -18.5 6t-32.5 4q-60 0 -79 -51t-31 -109l-8 -38h127l-13 -54h-126l-98 -456h-66zM470 510h66l-108 -510h-66zM569 646h-76l18 84h76z" />
    <glyph glyph-name="fl" unicode="&#xf002;" 
d="M171 456h-110l13 54h109l11 51q19 89 54.5 145t114.5 56q19 0 36 -2t34 -9l-15 -53q-5 2 -18.5 6t-32.5 4q-60 0 -79 -51t-31 -109l-8 -38h127l-13 -54h-126l-98 -456h-66zM522 750h66l-160 -750h-66z" />
    <glyph glyph-name="daggerdbl" unicode="&#x2021;" 
d="M233 188h-174l11 54h173l45 214h-174l11 54h175l40 188h62l-40 -188h176l-11 -54h-175l-45 -214h174l-11 -54h-175l-40 -188h-62z" />
    <glyph glyph-name="periodcentered" unicode="&#x2219;" horiz-adv-x="278" 
d="M160 359q20 0 35 -14t15 -35q0 -20 -15 -35t-35 -15t-34.5 14.5t-14.5 35.5t14 35t35 14z" />
    <glyph glyph-name="quotesinglbase" unicode="&#x201a;" horiz-adv-x="278" 
d="M83 84h80l-121 -218h-61z" />
    <glyph glyph-name="quotedblbase" unicode="&#x201e;" horiz-adv-x="444" 
d="M83 84h80l-121 -218h-61zM250 84h80l-121 -218h-61z" />
    <glyph glyph-name="perthousand" unicode="&#x2030;" horiz-adv-x="1000" 
d="M298 578q0 34 -17 56.5t-48 22.5q-49 0 -74 -46t-25 -100q0 -33 19.5 -54.5t50.5 -21.5q44 0 69 47t25 96zM682 124q0 73 45 130t116 57q58 0 93.5 -33.5t35.5 -92.5q0 -76 -46 -134t-120 -58q-57 0 -90.5 36.5t-33.5 94.5zM909 184q0 34 -17 56.5t-48 22.5
q-49 0 -74 -46t-25 -100q0 -33 19.5 -54.5t50.5 -21.5q44 0 69 47t25 96zM340 124q0 73 45 130t116 57q58 0 93.5 -33.5t35.5 -92.5q0 -76 -46 -134t-120 -58q-57 0 -90.5 36.5t-33.5 94.5zM567 184q0 34 -17 56.5t-48 22.5q-49 0 -74 -46t-25 -100q0 -33 19.5 -54.5
t50.5 -21.5q44 0 69 47t25 96zM71 518q0 73 45 130t116 57q58 0 93.5 -33.5t35.5 -92.5q0 -76 -46 -134t-120 -58q-57 0 -90.5 36.5t-33.5 94.5zM545 720h56l-445 -742h-56z" />
    <glyph glyph-name="Acircumflex" unicode="&#xc2;" horiz-adv-x="667" 
d="M420 629l-236 -382h309zM391 698h82l136 -698h-70l-35 187h-357l-115 -187h-74zM420 883h76l75 -144h-44l-72 102l-108 -102h-44z" />
    <glyph glyph-name="Ecircumflex" unicode="&#xca;" horiz-adv-x="500" 
d="M181 698h344l-11 -60h-277l-51 -249h261l-11 -60h-262l-56 -269h287l-10 -60h-358zM336 883h76l75 -144h-44l-72 102l-108 -102h-44z" />
    <glyph glyph-name="Aacute" unicode="&#xc1;" horiz-adv-x="667" 
d="M420 629l-236 -382h309zM391 698h82l136 -698h-70l-35 187h-357l-115 -187h-74zM475 883h79l-117 -144h-47z" />
    <glyph glyph-name="Edieresis" unicode="&#xcb;" horiz-adv-x="500" 
d="M181 698h344l-11 -60h-277l-51 -249h261l-11 -60h-262l-56 -269h287l-10 -60h-358zM253 851h77l-16 -84h-77zM428 851h77l-16 -84h-77z" />
    <glyph glyph-name="Egrave" unicode="&#xc8;" horiz-adv-x="500" 
d="M181 698h344l-11 -60h-277l-51 -249h261l-11 -60h-262l-56 -269h287l-10 -60h-358zM410 739h-42l-122 144h79z" />
    <glyph glyph-name="Iacute" unicode="&#xcd;" horiz-adv-x="222" 
d="M176 698h69l-148 -698h-69zM252 883h79l-117 -144h-47z" />
    <glyph glyph-name="Icircumflex" unicode="&#xce;" horiz-adv-x="222" 
d="M176 698h69l-148 -698h-69zM197 883h76l75 -144h-44l-72 102l-108 -102h-44z" />
    <glyph glyph-name="Idieresis" unicode="&#xcf;" horiz-adv-x="222" 
d="M176 698h69l-148 -698h-69zM114 851h77l-16 -84h-77zM289 851h77l-16 -84h-77z" />
    <glyph glyph-name="Igrave" unicode="&#xcc;" horiz-adv-x="222" 
d="M176 698h69l-148 -698h-69zM271 739h-42l-122 144h79z" />
    <glyph glyph-name="Oacute" unicode="&#xd3;" horiz-adv-x="722" 
d="M438 710q127 0 195.5 -77t68.5 -208q0 -175 -102 -306t-269 -131q-127 0 -195.5 77t-68.5 208q0 175 102 306t269 131zM333 48q132 0 216 115.5t84 255.5q0 103 -50 167t-147 64q-132 0 -216 -115.5t-84 -255.5q0 -103 50 -167t147 -64zM502 892h79l-117 -144h-47z" />
    <glyph glyph-name="Ocircumflex" unicode="&#xd4;" horiz-adv-x="722" 
d="M438 710q127 0 195.5 -77t68.5 -208q0 -175 -102 -306t-269 -131q-127 0 -195.5 77t-68.5 208q0 175 102 306t269 131zM333 48q132 0 216 115.5t84 255.5q0 103 -50 167t-147 64q-132 0 -216 -115.5t-84 -255.5q0 -103 50 -167t147 -64zM447 892h76l75 -144h-44l-72 102
l-108 -102h-44z" />
    <glyph glyph-name="apple" unicode="&#xf000;" horiz-adv-x="790" 
d="M408 594l-1 7v11q0 61 46 112t116 64v-12l1 -18q0 -64 -50.5 -114.5t-99.5 -50.5h-4zM735 197q-56 -121 -101 -167.5t-99 -46.5q-25 0 -64 16t-60 16q-23 0 -64 -16t-62 -16q-30 0 -63 21q-13 10 -30.5 27.5t-48.5 60t-59.5 120.5t-28.5 148q0 107 61.5 174.5t157.5 67.5
q16 0 35.5 -4t51.5 -17t49 -13q18 0 61 17t73 17q55 0 97.5 -19.5t77.5 -60.5q-49 -31 -73.5 -70.5t-24.5 -89.5q0 -54 30 -98t84 -67z" />
    <glyph glyph-name="Ograve" unicode="&#xd2;" horiz-adv-x="722" 
d="M438 710q127 0 195.5 -77t68.5 -208q0 -175 -102 -306t-269 -131q-127 0 -195.5 77t-68.5 208q0 175 102 306t269 131zM333 48q132 0 216 115.5t84 255.5q0 103 -50 167t-147 64q-132 0 -216 -115.5t-84 -255.5q0 -103 50 -167t147 -64zM521 748h-42l-122 144h79z" />
    <glyph glyph-name="Uacute" unicode="&#xda;" horiz-adv-x="667" 
d="M594 266q-20 -127 -92 -202.5t-190 -75.5q-103 0 -166.5 57.5t-63.5 162.5q0 43 11 102.5t29 136.5l55 251h66l-71 -340q-8 -39 -14.5 -81.5t-6.5 -65.5q0 -76 42.5 -119.5t117.5 -43.5q86 0 139 53.5t72 141.5l101 455h64zM475 883h79l-117 -144h-47z" />
    <glyph glyph-name="Ucircumflex" unicode="&#xdb;" horiz-adv-x="667" 
d="M594 266q-20 -127 -92 -202.5t-190 -75.5q-103 0 -166.5 57.5t-63.5 162.5q0 43 11 102.5t29 136.5l55 251h66l-71 -340q-8 -39 -14.5 -81.5t-6.5 -65.5q0 -76 42.5 -119.5t117.5 -43.5q86 0 139 53.5t72 141.5l101 455h64zM420 883h76l75 -144h-44l-72 102l-108 -102
h-44z" />
    <glyph glyph-name="Ugrave" unicode="&#xd9;" horiz-adv-x="667" 
d="M594 266q-20 -127 -92 -202.5t-190 -75.5q-103 0 -166.5 57.5t-63.5 162.5q0 43 11 102.5t29 136.5l55 251h66l-71 -340q-8 -39 -14.5 -81.5t-6.5 -65.5q0 -76 42.5 -119.5t117.5 -43.5q86 0 139 53.5t72 141.5l101 455h64zM494 739h-42l-122 144h79z" />
    <glyph glyph-name="dotlessi" unicode="&#x131;" horiz-adv-x="222" 
d="M136 510h66l-108 -510h-66z" />
    <glyph glyph-name="circumflex" unicode="&#x302;" horiz-adv-x="222" 
d="M149 722h76l75 -144h-44l-72 102l-108 -102h-44z" />
    <glyph glyph-name="tilde" unicode="&#x303;" horiz-adv-x="222" 
d="M303 693q0 -36 -23.5 -63.5t-58.5 -27.5q-12 0 -25.5 4t-33.5 11.5t-29.5 10.5t-23.5 3q-17 0 -26 -10t-12 -27h-36q0 36 23.5 63.5t58.5 27.5q14 0 28.5 -4t27.5 -9.5t28.5 -10.5t27.5 -5q33 0 38 37h36z" />
    <glyph glyph-name="macron" unicode="&#x2c9;" horiz-adv-x="222" 
d="M299 622h-257l11 54h257z" />
    <glyph glyph-name="breve" unicode="&#x2d8;" horiz-adv-x="222" 
d="M101 711q0 -31 21 -49t52 -18q41 0 77 17.5t64 49.5h35q-34 -55 -75 -91t-94 -36q-57 0 -83.5 34t-26.5 93h30z" />
    <glyph glyph-name="dotaccent" unicode="&#x2d9;" horiz-adv-x="222" 
d="M153 690h77l-16 -84h-77z" />
    <glyph glyph-name="ring" unicode="&#x2da;" horiz-adv-x="222" 
d="M197 759q40 0 69.5 -29.5t29.5 -69.5t-29 -70t-70 -30t-70.5 29.5t-29.5 70.5t30 70t70 29zM197 596q28 0 45.5 18.5t17.5 45.5t-17 45t-46 18t-46.5 -17.5t-17.5 -45.5q0 -27 17.5 -45.5t46.5 -18.5z" />
    <glyph glyph-name="cedilla" unicode="&#xb8;" horiz-adv-x="222" 
d="M-8 -127q16 -11 39 -19.5t49 -8.5q22 0 38 10.5t16 35.5q0 17 -12.5 26.5t-27.5 9.5q-12 0 -21.5 -1t-19.5 -6l38 80h32l-24 -47q12 4 32 4q30 0 48 -16t18 -47q0 -41 -32.5 -60t-77.5 -19q-32 0 -52.5 6.5t-49.5 20.5z" />
    <glyph glyph-name="hungarumlaut" unicode="&#x2ba;" horiz-adv-x="222" 
d="M136 722h79l-117 -144h-47zM274 722h79l-117 -144h-47z" />
    <glyph glyph-name="ogonek" unicode="&#x2db;" horiz-adv-x="222" 
d="M213 -149q-26 -31 -54 -46t-70 -15q-37 0 -60 15.5t-23 46.5q0 44 43.5 82.5t99.5 65.5h51q-48 -26 -89.5 -61.5t-41.5 -71.5q0 -41 37 -41q26 0 43 10t34 29z" />
    <glyph glyph-name="caron" unicode="&#x2c7;" horiz-adv-x="222" 
d="M208 578h-76l-75 144h44l72 -102l108 102h44z" />
    <glyph glyph-name="Lslash" horiz-adv-x="444" 
d="M79 237l-70 -43l17 72l68 42l83 390h71l-73 -340l187 115l-17 -72l-185 -114l-49 -227h285l-11 -60h-357z" />
    <glyph glyph-name="lslash" horiz-adv-x="222" 
d="M99 333l-72 -44l14 67l72 43l75 351h66l-64 -301l72 47l-14 -66l-72 -47l-82 -383h-66z" />
    <glyph glyph-name="Scaron" horiz-adv-x="500" 
d="M498 616q-66 34 -141 34q-67 0 -117 -32t-50 -98q0 -49 64 -93t126 -86q67 -58 67 -135q0 -100 -77 -159t-180 -59q-63 0 -104 10.5t-72 27.5l21 66q29 -20 70.5 -32t78.5 -12q79 0 136.5 37t57.5 112q0 60 -66 111q-62 42 -124 85q-67 55 -67 122q0 96 68 145.5
t168 49.5q90 0 162 -31zM395 748h-76l-75 144h44l72 -102l108 102h44z" />
    <glyph glyph-name="scaron" horiz-adv-x="389" 
d="M5 79q29 -18 59 -27.5t62 -9.5q56 0 100 24t44 78t-100.5 111.5t-100.5 124.5q0 70 58 106t131 36q69 0 131 -25l-21 -59q-52 30 -113 30q-48 0 -84 -19.5t-36 -67.5q0 -37 102 -98t102 -135q0 -80 -60.5 -120t-144.5 -40q-43 0 -76.5 6t-71.5 22zM292 578h-76l-75 144
h44l72 -102l108 102h44z" />
    <glyph glyph-name="Zcaron" horiz-adv-x="500" 
d="M-19 61l489 577h-355l13 60h437l-13 -61l-488 -577h378l-13 -60h-460zM395 739h-76l-75 144h44l72 -102l108 102h44z" />
    <glyph glyph-name="zcaron" horiz-adv-x="444" 
d="M-8 58l380 398h-289l12 54h373l-12 -59l-385 -397h306l-10 -54h-387zM319 578h-76l-75 144h44l72 -102l108 102h44z" />
    <glyph glyph-name="brokenbar" horiz-adv-x="222" 
d="M101 254h69v-266h-69v266zM101 750h69v-266h-69v266z" />
    <glyph glyph-name="Eth" horiz-adv-x="667" 
d="M107 329h-67l12 60h68l65 309h124q155 0 247 -65t92 -215q0 -190 -106 -304t-294 -114h-211zM190 389h194l-14 -60h-193l-58 -269h123q158 0 247.5 94.5t89.5 263.5q0 113 -66 166.5t-183 53.5h-87z" />
    <glyph glyph-name="glyph234" 
d="M251 42q92 0 149 81t57 179q0 77 -35 121.5t-107 44.5q-99 0 -153 -80.5t-54 -187.5q0 -68 39 -113t104 -45zM308 673q-51 36 -105 51l26 38q77 -21 133 -59l108 59l32 -34l-101 -56q62 -57 93.5 -142t31.5 -192q0 -157 -74 -253.5t-209 -96.5q-93 0 -148.5 62.5
t-55.5 159.5q0 132 78.5 222t205.5 90q51 -5 79.5 -20.5t48.5 -47.5q-9 56 -36.5 103.5t-67.5 83.5l-113 -63l-34 36z" />
    <glyph glyph-name="Yacute" horiz-adv-x="611" 
d="M283 295l-177 403h73l147 -346l294 346h83l-353 -403l-63 -295h-67zM447 883h79l-117 -144h-47z" />
    <glyph glyph-name="yacute" horiz-adv-x="444" 
d="M139 -120q-26 -48 -56.5 -72t-80.5 -24q-21 0 -33 2.5t-28 11.5l15 54q7 -7 18 -10.5t23 -3.5q30 0 55.5 23t41.5 57l43 81l-72 511h66l52 -439l241 439h68zM315 722h79l-117 -144h-47z" />
    <glyph glyph-name="Thorn" horiz-adv-x="500" 
d="M157 232h78q90 0 149.5 38.5t59.5 122.5q0 65 -42 90t-113 25h-73zM187 698h69l-28 -130h50q112 0 173.5 -36.5t61.5 -138.5q0 -106 -79.5 -163.5t-191.5 -57.5h-99l-37 -172h-69z" />
    <glyph glyph-name="thorn" 
d="M184 750h66l-74 -324q29 46 74 71t98 25q84 0 129.5 -58t45.5 -148q0 -129 -69 -228.5t-190 -99.5q-55 0 -95.5 29.5t-56.5 81.5l-64 -309h-66zM264 42q91 0 140.5 85.5t49.5 188.5q0 67 -31 109.5t-93 42.5q-84 0 -139 -86t-55 -178q0 -67 32.5 -114.5t95.5 -47.5z" />
    <glyph glyph-name="minus" horiz-adv-x="600" 
d="M61 288h507v-69h-507v69z" />
    <glyph glyph-name="multiply" horiz-adv-x="600" 
d="M86 437l49 49l181 -181l179 181l50 -49l-180 -180l180 -181l-50 -50l-179 182l-181 -182l-49 50l181 181z" />
    <glyph glyph-name="onesuperior" horiz-adv-x="361" 
d="M251 650l-86 -56l-21 34l122 77h53l-96 -421h-57z" />
    <glyph glyph-name="twosuperior" horiz-adv-x="361" 
d="M55 320l157 128q52 42 87.5 78.5t35.5 68.5t-23.5 47t-55.5 15q-33 0 -62 -11t-52 -27l3 53q29 16 57.5 24.5t59.5 8.5q56 0 93 -27t37 -83q0 -39 -33.5 -79.5t-80.5 -76.5l-135 -105l187 -2l-9 -48h-277z" />
    <glyph glyph-name="threesuperior" horiz-adv-x="361" 
d="M132 524q74 0 127 14t53 61q0 26 -30.5 42t-62.5 16q-60 0 -111 -25l5 53q21 9 50.5 14.5t56.5 5.5q61 0 105 -23.5t44 -82.5q0 -44 -37 -69.5t-87 -25.5q39 -7 60 -32t21 -64q0 -65 -60.5 -98t-131.5 -33q-60 0 -120 17l12 50q24 -10 51.5 -14.5t57.5 -4.5
q49 0 91.5 22.5t42.5 63.5q0 44 -38.5 54.5t-108.5 10.5z" />
    <glyph glyph-name="onehalf" horiz-adv-x="834" 
d="M548 720h57l-445 -742h-57zM221 650l-86 -56l-21 34l122 77h53l-96 -421h-57zM438 36l157 128q52 42 87.5 78.5t35.5 68.5t-23.5 47t-55.5 15q-33 0 -62 -11t-52 -27l3 53q29 16 57.5 24.5t59.5 8.5q56 0 93 -27t37 -83q0 -39 -33.5 -79.5t-80.5 -76.5l-135 -105l187 -2
l-9 -48h-277z" />
    <glyph glyph-name="onequarter" horiz-adv-x="834" 
d="M570 720h57l-445 -742h-57zM205 650l-86 -56l-21 34l122 77h53l-96 -421h-57zM633 91h-225l7 45l273 285h79l-66 -282h52l-10 -48h-52l-22 -91h-57zM699 366l-218 -227h165z" />
    <glyph glyph-name="threequarters" horiz-adv-x="834" 
d="M650 720h57l-445 -742h-57zM145 524q74 0 127 14t53 61q0 26 -30.5 42t-62.5 16q-60 0 -111 -25l5 53q21 9 50.5 14.5t56.5 5.5q61 0 105 -23.5t44 -82.5q0 -44 -37 -69.5t-87 -25.5q39 -7 60 -32t21 -64q0 -65 -60.5 -98t-131.5 -33q-60 0 -120 17l12 50
q24 -10 51.5 -14.5t57.5 -4.5q49 0 91.5 22.5t42.5 63.5q0 44 -38.5 54.5t-108.5 10.5zM673 91h-225l7 45l273 285h79l-66 -282h52l-10 -48h-52l-22 -91h-57zM739 366l-218 -227h165z" />
  </font>
</defs>
</svg>
